<?xml version="1.0" encoding="utf-8"?>
<!-- Generator: Adobe Illustrator 17.1.0, SVG Export Plug-In . SVG Version: 6.00 Build 0)  -->
<!DOCTYPE svg PUBLIC "-//W3C//DTD SVG 1.1//EN" "http://www.w3.org/Graphics/SVG/1.1/DTD/svg11.dtd">
<svg version="1.1" id="Layer_1" xmlns="http://www.w3.org/2000/svg" xmlns:xlink="http://www.w3.org/1999/xlink" x="0px" y="0px"
	 viewBox="0 0 1280 800" enable-background="new 0 0 1280 800" xml:space="preserve">
<g>
	<path fill="none" stroke="#000000" stroke-miterlimit="10" d="M-135.2-656.1l761,757l740.2-744.1"/>
	<polyline fill="none" stroke="#000000" stroke-miterlimit="10" points="-135.2,-512.8 625.8,244.2 1366.1,-499.9 	"/>
	<polyline fill="none" stroke="#000000" stroke-miterlimit="10" points="-135.2,-369.5 625.8,387.4 1366.1,-356.7 	"/>
	<polyline fill="none" stroke="#000000" stroke-miterlimit="10" points="-135.2,-226.3 625.8,530.7 1366.1,-213.4 	"/>
	<polyline fill="none" stroke="#000000" stroke-miterlimit="10" points="-135.2,-83 625.8,673.9 1366.1,-70.1 	"/>
	<polyline fill="none" stroke="#000000" stroke-miterlimit="10" points="-135.2,60.2 625.8,817.2 1366.1,73.1 	"/>
	<polyline fill="none" stroke="#000000" stroke-miterlimit="10" points="-135.2,203.5 625.8,960.5 1366.1,216.4 	"/>
	<path fill="none" stroke="#000000" stroke-miterlimit="10" d="M-135.2,346.8l761,757l740.2-744.1"/>
</g>
<rect x="258" y="309.2" fill="none" width="732" height="344"/>
<text transform="matrix(1 0 0 1 401.2705 360.6487)" fill="#FF0000" font-family="'HelveticaNeue-Light'" font-size="72">roscodes.com</text>
</svg>
