<!-- <?xml version="1.0" encoding="utf-8"?> -->
<!-- Generator: Adobe Illustrator 17.1.0, SVG Export Plug-In . SVG Version: 6.00 Build 0)  -->
<!-- <!DOCTYPE svg PUBLIC "-//W3C//DTD SVG 1.1//EN" "http://www.w3.org/Graphics/SVG/1.1/DTD/svg11.dtd"> -->
<!-- <svg version="1.1" id="Layer_1" xmlns="http://www.w3.org/2000/svg" xmlns:xlink="http://www.w3.org/1999/xlink" x="0px" y="0px"
	 viewBox="0 0 1280 800" enable-background="new 0 0 1280 800" xml:space="preserve">
<g>
	<path fill="none" stroke="#000000" stroke-miterlimit="10" d="M1200.2,-85.1 638.4,476.7 63.8,-97.8 	"/>
	<path fill="none" stroke="#000000" stroke-miterlimit="10" points="1240.3,-10.3 644.6,585.4 25.2,-34.1 	"/>
	<path fill="none" stroke="#000000" stroke-miterlimit="10" points="1280.4,64.4 650.8,694 -13.5,29.7 	"/>
	<path fill="none" stroke="#000000" stroke-miterlimit="10" points="1320.5,139.2 657.1,802.6 -52.1,93.4 	"/>
	<path fill="none" stroke="#000000" stroke-miterlimit="10" points="1360.6,213.9 663.3,911.2 -90.8,157.2 	"/>
	<path fill="none" stroke="#000000" stroke-miterlimit="10" points="1400.6,288.7 669.5,1019.8 -129.4,220.9 	"/>
	<path fill="none" stroke="#000000" stroke-miterlimit="10" points="1440.7,363.4 675.7,1128.5 -168.1,284.7 	"/>
	<path fill="none" stroke="#000000" stroke-miterlimit="10" points="1480.8,438.2 682,1237.1 -206.7,348.4 	"/>
</g>
</svg> -->

<svg class="route2" enable-background="new 0 0 1280 800" space="preserve" version="1.1" viewbox="0 3 1280 800" x="0px" xmlns="http://www.w3.org/2000/svg" xmlns:xlink="http://www.w3.org/1999/xlink" y="0px">
  <path class="path" d="M63.8,-97.8 638.4,476.7 1200.2,-85.1" fill="none" stroke="#000000" stroke-miterlimit="10"></path>
  <path class="path" d="M25.2,-34.1 644.6,585.4 1240.3,-10.3" fill="none" stroke="#000000" stroke-miterlimit="10"></path>
  <path class="path" d="M-13.5,29.7 650.8,694 1280.4,64.4" fill="none" stroke="#000000" stroke-miterlimit="10"></path>
  <path class="path" d="M-52.1,93.4 657.1,802.6 1320.5,139.2" fill="none" stroke="#000000" stroke-miterlimit="10"></path>
  <path class="path" d="M-90.8,157.2 663.3,911.2 1360.6,213.9" fill="none" stroke="#000000" stroke-miterlimit="10"></path>
  <path class="path" d="M-129.4,220.9 669.5,1019.8 1400.6,288.7" fill="none" stroke="#000000" stroke-miterlimit="10"></path>
  <path class="path" d="M-168.1,284.7 675.7,1128.5 1440.7,363.4" fill="none" stroke="#000000" stroke-miterlimit="10"></path>
  <path class="path" d="M-206.7,348.4 682,1237.1 1480.8,438.2" fill="none" stroke="#000000" stroke-miterlimit="10"></path>
</svg>
