<?xml version="1.0" encoding="utf-8"?>
<!-- Generator: Adobe Illustrator 17.1.0, SVG Export Plug-In . SVG Version: 6.00 Build 0)  -->
<!DOCTYPE svg PUBLIC "-//W3C//DTD SVG 1.1//EN" "http://www.w3.org/Graphics/SVG/1.1/DTD/svg11.dtd">
<svg version="1.1" id="Layer_1" xmlns="http://www.w3.org/2000/svg" xmlns:xlink="http://www.w3.org/1999/xlink" x="0px" y="0px"
	 viewBox="0 0 1280 800" enable-background="new 0 0 1280 800" xml:space="preserve">
<path fill="none" stroke="#000000" stroke-miterlimit="10" d="M764.3,481.5c-93.5,172.4-309,236.3-481.3,142.9
	C145.1,549.6,93.9,377.2,168.7,239.3c59.8-110.3,197.7-151.2,308-91.4c88.2,47.9,121,158.2,73.1,246.4
	c-38.3,70.6-126.5,96.8-197.1,58.5c-56.5-30.6-77.4-101.2-46.8-157.7c24.5-45.2,81-62,126.2-37.4c36.1,19.6,49.6,64.8,30,100.9
	c-15.7,28.9-51.8,39.6-80.8,24c-23.1-12.5-31.7-41.5-19.2-64.6"/>
</svg>
